<?xml version="1.0" encoding="UTF-8" standalone="no"?>
<!-- Created with Inkscape (http://www.inkscape.org/) -->

<svg
   width="210mm"
   height="297mm"
   viewBox="0 0 210 297"
   version="1.1"
   id="svg1"
   inkscape:version="1.3.2 (091e20e, 2023-11-25, custom)"
   sodipodi:docname="dessin.svg"
   xmlns:inkscape="http://www.inkscape.org/namespaces/inkscape"
   xmlns:sodipodi="http://sodipodi.sourceforge.net/DTD/sodipodi-0.dtd"
   xmlns="http://www.w3.org/2000/svg"
   xmlns:svg="http://www.w3.org/2000/svg">
  <sodipodi:namedview
     id="namedview1"
     pagecolor="#ffffff"
     bordercolor="#666666"
     borderopacity="1.0"
     inkscape:showpageshadow="2"
     inkscape:pageopacity="0.0"
     inkscape:pagecheckerboard="0"
     inkscape:deskcolor="#d1d1d1"
     inkscape:document-units="mm"
     inkscape:zoom="4.2510312"
     inkscape:cx="255.9379"
     inkscape:cy="750.05331"
     inkscape:window-width="2560"
     inkscape:window-height="1009"
     inkscape:window-x="-8"
     inkscape:window-y="-8"
     inkscape:window-maximized="1"
     inkscape:current-layer="layer1" />
  <defs
     id="defs1">
    <rect
       x="271.41461"
       y="565.77254"
       width="69.318119"
       height="35.147215"
       id="rect1" />
    <rect
       x="271.41461"
       y="565.77254"
       width="69.318119"
       height="35.147215"
       id="rect2" />
    <rect
       x="271.41461"
       y="565.77254"
       width="69.318119"
       height="35.147215"
       id="rect4" />
    <rect
       x="271.41461"
       y="565.77254"
       width="69.318119"
       height="35.147215"
       id="rect5" />
    <rect
       x="271.41461"
       y="565.77254"
       width="69.318119"
       height="35.147215"
       id="rect6" />
    <rect
       x="271.41461"
       y="565.77254"
       width="69.318119"
       height="35.147215"
       id="rect7" />
  </defs>
  <g
     inkscape:label="Calque 1"
     inkscape:groupmode="layer"
     id="layer1">
    <path
       style="fill:#000000;stroke:none;stroke-width:0.0934334"
       id="path1"
       sodipodi:type="arc"
       sodipodi:cx="55.651306"
       sodipodi:cy="153.4097"
       sodipodi:rx="0.45538524"
       sodipodi:ry="0.45538524"
       sodipodi:start="4.2072514"
       sodipodi:end="4.2049754"
       sodipodi:open="true"
       sodipodi:arc-type="arc"
       d="m 55.430933,153.01119 a 0.45538524,0.45538524 0 0 1 0.618759,0.17791 0.45538524,0.45538524 0 0 1 -0.177559,0.61886 0.45538524,0.45538524 0 0 1 -0.618961,-0.17721 0.45538524,0.45538524 0 0 1 0.176854,-0.61906"
       inkscape:export-filename="situation1.png"
       inkscape:export-xdpi="176"
       inkscape:export-ydpi="176" />
    <text
       xml:space="preserve"
       transform="matrix(0.26458333,0,0,0.26458333,-18.337997,-1.4696847)"
       id="text1"
       style="font-size:12px;line-height:1.25;font-family:sans-serif;white-space:pre;shape-inside:url(#rect1);display:inline"><tspan
         x="271.41406"
         y="576.69194"
         id="tspan5">A</tspan></text>
    <path
       style="fill:#000000;stroke:none;stroke-width:0.0934334"
       id="path2"
       sodipodi:type="arc"
       sodipodi:cx="70.878822"
       sodipodi:cy="153.58572"
       sodipodi:rx="0.45538524"
       sodipodi:ry="0.45538524"
       sodipodi:start="4.2072514"
       sodipodi:end="4.2049754"
       sodipodi:open="true"
       sodipodi:arc-type="arc"
       d="m 70.658449,153.18721 a 0.45538524,0.45538524 0 0 1 0.618759,0.17791 0.45538524,0.45538524 0 0 1 -0.177559,0.61886 0.45538524,0.45538524 0 0 1 -0.618961,-0.1772 0.45538524,0.45538524 0 0 1 0.176854,-0.61906" />
    <text
       xml:space="preserve"
       transform="matrix(0.26458333,0,0,0.26458333,1.1145053,3.8555478)"
       id="text2"
       style="font-size:12px;line-height:1.25;font-family:sans-serif;white-space:pre;shape-inside:url(#rect2);display:inline"><tspan
         x="271.41406"
         y="576.69194"
         id="tspan8">B</tspan></text>
    <path
       style="fill:#000000;stroke:none;stroke-width:0.0934334"
       id="path3"
       sodipodi:type="arc"
       sodipodi:cx="70.519676"
       sodipodi:cy="190.70871"
       sodipodi:rx="0.45538524"
       sodipodi:ry="0.45538524"
       sodipodi:start="4.2072514"
       sodipodi:end="4.2049754"
       sodipodi:open="true"
       sodipodi:arc-type="arc"
       d="m 70.299303,190.3102 a 0.45538524,0.45538524 0 0 1 0.618759,0.17791 0.45538524,0.45538524 0 0 1 -0.177559,0.61886 0.45538524,0.45538524 0 0 1 -0.618961,-0.17721 0.45538524,0.45538524 0 0 1 0.176854,-0.61906"
       inkscape:export-filename="situation3.png"
       inkscape:export-xdpi="176"
       inkscape:export-ydpi="176" />
    <text
       xml:space="preserve"
       transform="matrix(0.26458333,0,0,0.26458333,-3.4696221,35.829335)"
       id="text3"
       style="font-size:12px;line-height:1.25;font-family:sans-serif;white-space:pre;shape-inside:url(#rect4);display:inline"><tspan
         x="271.41406"
         y="576.69194"
         id="tspan9">A</tspan></text>
    <path
       style="fill:#000000;stroke:none;stroke-width:0.0934334"
       id="path4"
       sodipodi:type="arc"
       sodipodi:cx="82.262268"
       sodipodi:cy="197.65724"
       sodipodi:rx="0.45538524"
       sodipodi:ry="0.45538524"
       sodipodi:start="4.2072514"
       sodipodi:end="4.2049754"
       sodipodi:open="true"
       sodipodi:arc-type="arc"
       d="m 82.041894,197.25873 a 0.45538524,0.45538524 0 0 1 0.61876,0.17791 0.45538524,0.45538524 0 0 1 -0.177559,0.61886 0.45538524,0.45538524 0 0 1 -0.618961,-0.1772 0.45538524,0.45538524 0 0 1 0.176854,-0.61907" />
    <text
       xml:space="preserve"
       transform="matrix(0.26458333,0,0,0.26458333,11.483123,44.601038)"
       id="text4"
       style="font-size:12px;line-height:1.25;font-family:sans-serif;white-space:pre;shape-inside:url(#rect5);display:inline"><tspan
         x="271.41406"
         y="576.69194"
         id="tspan10">B</tspan></text>
    <path
       style="fill:#000000;stroke:none;stroke-width:0.190288"
       id="path5"
       sodipodi:type="arc"
       sodipodi:cx="75.745834"
       sodipodi:cy="203.86647"
       sodipodi:rx="1.1203164"
       sodipodi:ry="1.0269567"
       sodipodi:start="4.2072514"
       sodipodi:end="4.2049754"
       sodipodi:open="true"
       sodipodi:arc-type="arc"
       d="m 75.203682,202.96777 a 1.1203164,1.0269567 0 0 1 1.522241,0.40122 1.1203164,1.0269567 0 0 1 -0.436821,1.39561 1.1203164,1.0269567 0 0 1 -1.522738,-0.39962 1.1203164,1.0269567 0 0 1 0.435088,-1.39607" />
    <path
       style="fill:#000000;stroke:none;stroke-width:0.0934334"
       id="path6"
       sodipodi:type="arc"
       sodipodi:cx="57.075878"
       sodipodi:cy="203.40562"
       sodipodi:rx="0.45538524"
       sodipodi:ry="0.45538524"
       sodipodi:start="4.2072514"
       sodipodi:end="4.2049754"
       sodipodi:open="true"
       sodipodi:arc-type="arc"
       d="m 56.855505,203.00711 a 0.45538524,0.45538524 0 0 1 0.618759,0.17791 0.45538524,0.45538524 0 0 1 -0.177559,0.61886 0.45538524,0.45538524 0 0 1 -0.618961,-0.1772 0.45538524,0.45538524 0 0 1 0.176854,-0.61906"
       inkscape:export-filename="situation2.png"
       inkscape:export-xdpi="176"
       inkscape:export-ydpi="176" />
    <text
       xml:space="preserve"
       transform="matrix(0.26458333,0,0,0.26458333,-16.913419,48.526255)"
       id="text6"
       style="font-size:12px;line-height:1.25;font-family:sans-serif;white-space:pre;shape-inside:url(#rect6);display:inline"><tspan
         x="271.41406"
         y="576.69194"
         id="tspan11">C</tspan></text>
    <text
       xml:space="preserve"
       transform="matrix(0.26458333,0,0,0.26458333,2.084913,48.459906)"
       id="text7"
       style="font-size:12px;line-height:1.25;font-family:sans-serif;white-space:pre;shape-inside:url(#rect7);display:inline"><tspan
         x="271.41406"
         y="576.69194"
         id="tspan12">M</tspan></text>
  </g>
</svg>
